<?xml version="1.0" standalone="no"?>
<!DOCTYPE svg PUBLIC "-//W3C//DTD SVG 20010904//EN"
 "http://www.w3.org/TR/2001/REC-SVG-20010904/DTD/svg10.dtd">
<svg version="1.0" xmlns="http://www.w3.org/2000/svg"
 width="192.000000pt" height="192.000000pt" viewBox="0 0 192.000000 192.000000"
 preserveAspectRatio="xMidYMid meet">
<metadata>
Created by potrace 1.11, written by Peter Selinger 2001-2013
</metadata>
<g transform="translate(0.000000,192.000000) scale(0.100000,-0.100000)"
fill="#000000" stroke="none">
<path d="M858 1905 c-2 -2 -25 -6 -52 -9 -59 -8 -206 -55 -267 -86 -132 -66
-266 -181 -352 -301 -51 -71 -107 -180 -126 -244 -7 -22 -15 -47 -18 -55 -3
-8 -7 -22 -8 -30 -1 -8 -6 -28 -10 -45 -4 -16 -9 -84 -11 -150 -6 -216 49
-399 174 -573 79 -111 153 -178 312 -281 58 -38 200 -87 306 -105 73 -13 261
-14 314 -2 14 4 34 8 45 10 226 44 463 208 596 412 46 70 95 175 114 244 70
257 43 499 -82 735 -45 85 -222 285 -252 285 -6 0 -11 4 -11 8 0 9 -114 77
-184 109 -46 22 -130 49 -178 59 -13 2 -34 6 -48 10 -26 6 -257 14 -262 9z"/>
</g>
</svg>
